<svg class="diagram-root" style="background: #f5f6f6" xmlns="http://www.w3.org/2000/svg" xmlns:xlink="http://www.w3.org/1999/xlink"><style>.diagram-root { font-family: "Helvetica Neue", sans-serif; font-size: 12px; } .t { overflow: visible; } .t-bg { y: 40; fill: #fff;   } .th { fill: #005aa0;   } .tht { fill: #fff; font-size: 14px;  } .tf { fill: #323c46; overflow: visible; } .tf.pk { fill: #005aa0; font-weight: bold; } .tf.fk { font-weight: bold; } .ty { fill: #adb1b5; font-weight: normal; text-anchor: end; } .r { fill: transparent; stroke: #c3c3c3; stroke-width: 1; } .l { stroke: 1; } .i { fill: #c2c7ce; stroke: #c2c7ce; } .i.ix { fill: #afb3b6; stroke: #000; } .fa { fill: transparent; overflow: visible; } .fa .bg.hover { fill: #f7f7f7; } .c { cy: 12; r: 4; stroke: #d2d2dc; fill: #d2d2dc; } .hr { fill: transparent; stroke: #323c46; stroke-opacity: 0.035; stroke-width: 13; } .dc { stroke: #fa5a3c; fill: #fa5a3c; } .x { stroke: white; stroke-width: 1; } .hl .th { fill: #1b9bff; } .hl .tht {  } .fhl .bg { fill: #e7f4ff; } .fhls .bg {  } .r.hl { stroke: #1b9bff; } .dim { opacity: 0.25; }</style><g class="drawing-wrapper" transform="translate(168.25, 231.25) scale(1,1)"><g class="rs"><path d="M 84.21000000000001 -143.57 m -1, 0 a 1,1 0 1,0 2,0 a 1,1 0 1,0 -2,0 M 84.21000000000001 -143.57 m -0.5, 0 a 0.5,0.5 0 1,0 1,0 a 0.5,0.5 0 1,0 -1,0  M84.21000000000001 -143.57 L84.21000000000001 -143.57 72.21000000000001 -143.57 M78.21000000000001 -137.57 L78.21000000000001 -137.57 78.21000000000001 -149.57 M72.21000000000001 -143.57 Q 56.42 -143.57, 40.63 -118.28 T 9.04 -93 M -2.96 -93 m -1, 0 a 1,1 0 1,0 2,0 a 1,1 0 1,0 -2,0 M -2.96 -93 m -0.5, 0 a 0.5,0.5 0 1,0 1,0 a 0.5,0.5 0 1,0 -1,0  M-2.96 -93 L-2.96 -93 9.04 -93 M3.04 -87 L3.04 -87 3.04 -99" id="h801145217" class="r"></path><path d="M 212.25 -118.57 m -1, 0 a 1,1 0 1,0 2,0 a 1,1 0 1,0 -2,0 M 212.25 -118.57 m -0.5, 0 a 0.5,0.5 0 1,0 1,0 a 0.5,0.5 0 1,0 -1,0  M212.25 -118.57 L212.25 -118.57 224.25 -118.57 M 212.25 -112.57 m -1, 0 a 1,1 0 1,0 2,0 a 1,1 0 1,0 -2,0 M 212.25 -112.57 m -0.5, 0 a 0.5,0.5 0 1,0 1,0 a 0.5,0.5 0 1,0 -1,0  M212.25 -112.57 L212.25 -112.57 219.25 -118.57 212.25 -124.57 M 212.25 -124.57 m -1, 0 a 1,1 0 1,0 2,0 a 1,1 0 1,0 -2,0 M 212.25 -124.57 m -0.5, 0 a 0.5,0.5 0 1,0 1,0 a 0.5,0.5 0 1,0 -1,0  M224.25 -118.57 Q 241.13 -118.57, 258 -131.41 T 291.75 -144.25 M 303.75 -144.25 m -1, 0 a 1,1 0 1,0 2,0 a 1,1 0 1,0 -2,0 M 303.75 -144.25 m -0.5, 0 a 0.5,0.5 0 1,0 1,0 a 0.5,0.5 0 1,0 -1,0  M303.75 -144.25 L303.75 -144.25 291.75 -144.25 M297.75 -138.25 L297.75 -138.25 297.75 -150.25" id="h1204661345" class="r"></path><path d="M 438.47 -119.25 m -1, 0 a 1,1 0 1,0 2,0 a 1,1 0 1,0 -2,0 M 438.47 -119.25 m -0.5, 0 a 0.5,0.5 0 1,0 1,0 a 0.5,0.5 0 1,0 -1,0  M438.47 -119.25 L438.47 -119.25 450.47 -119.25 M 438.47 -113.25 m -1, 0 a 1,1 0 1,0 2,0 a 1,1 0 1,0 -2,0 M 438.47 -113.25 m -0.5, 0 a 0.5,0.5 0 1,0 1,0 a 0.5,0.5 0 1,0 -1,0  M438.47 -113.25 L438.47 -113.25 445.47 -119.25 438.47 -125.25 M 438.47 -125.25 m -1, 0 a 1,1 0 1,0 2,0 a 1,1 0 1,0 -2,0 M 438.47 -125.25 m -0.5, 0 a 0.5,0.5 0 1,0 1,0 a 0.5,0.5 0 1,0 -1,0  M450.47 -119.25 Q 468.41 -119.25, 486.34 -131.52 T 522.2 -143.8 M 534.2 -143.8 m -1, 0 a 1,1 0 1,0 2,0 a 1,1 0 1,0 -2,0 M 534.2 -143.8 m -0.5, 0 a 0.5,0.5 0 1,0 1,0 a 0.5,0.5 0 1,0 -1,0  M534.2 -143.8 L534.2 -143.8 522.2 -143.8 M528.2 -137.8 L528.2 -137.8 528.2 -149.8" id="h2942858697" class="r"></path><path d="M 25.81 273.25 m -1, 0 a 1,1 0 1,0 2,0 a 1,1 0 1,0 -2,0 M 25.81 273.25 m -0.5, 0 a 0.5,0.5 0 1,0 1,0 a 0.5,0.5 0 1,0 -1,0  M25.81 273.25 L25.81 273.25 37.81 273.25 M 25.81 279.25 m -1, 0 a 1,1 0 1,0 2,0 a 1,1 0 1,0 -2,0 M 25.81 279.25 m -0.5, 0 a 0.5,0.5 0 1,0 1,0 a 0.5,0.5 0 1,0 -1,0  M25.81 279.25 L25.81 279.25 32.81 273.25 25.81 267.25 M 25.81 267.25 m -1, 0 a 1,1 0 1,0 2,0 a 1,1 0 1,0 -2,0 M 25.81 267.25 m -0.5, 0 a 0.5,0.5 0 1,0 1,0 a 0.5,0.5 0 1,0 -1,0  M37.81 273.25 Q 54.74 273.25, 71.66 199.5 T 105.5 125.75 M 117.5 125.75 m -1, 0 a 1,1 0 1,0 2,0 a 1,1 0 1,0 -2,0 M 117.5 125.75 m -0.5, 0 a 0.5,0.5 0 1,0 1,0 a 0.5,0.5 0 1,0 -1,0  M117.5 125.75 L117.5 125.75 105.5 125.75 M111.5 131.75 L111.5 131.75 111.5 119.75" id="h1981091798" class="r"></path><path d="M 25.81 298.25 m -1, 0 a 1,1 0 1,0 2,0 a 1,1 0 1,0 -2,0 M 25.81 298.25 m -0.5, 0 a 0.5,0.5 0 1,0 1,0 a 0.5,0.5 0 1,0 -1,0  M25.81 298.25 L25.81 298.25 37.81 298.25 M 25.81 304.25 m -1, 0 a 1,1 0 1,0 2,0 a 1,1 0 1,0 -2,0 M 25.81 304.25 m -0.5, 0 a 0.5,0.5 0 1,0 1,0 a 0.5,0.5 0 1,0 -1,0  M25.81 304.25 L25.81 304.25 32.81 298.25 25.81 292.25 M 25.81 292.25 m -1, 0 a 1,1 0 1,0 2,0 a 1,1 0 1,0 -2,0 M 25.81 292.25 m -0.5, 0 a 0.5,0.5 0 1,0 1,0 a 0.5,0.5 0 1,0 -1,0  M37.81 298.25 Q 55.05 298.25, 72.28 270.13 T 106.75 242 M 118.75 242 m -1, 0 a 1,1 0 1,0 2,0 a 1,1 0 1,0 -2,0 M 118.75 242 m -0.5, 0 a 0.5,0.5 0 1,0 1,0 a 0.5,0.5 0 1,0 -1,0  M118.75 242 L118.75 242 106.75 242 M112.75 248 L112.75 248 112.75 236" id="h1188043245" class="r"></path><path d="M 116.25 4.5 m -1, 0 a 1,1 0 1,0 2,0 a 1,1 0 1,0 -2,0 M 116.25 4.5 m -0.5, 0 a 0.5,0.5 0 1,0 1,0 a 0.5,0.5 0 1,0 -1,0  M116.25 4.5 L116.25 4.5 104.25 4.5 M110.25 10.5 L110.25 10.5 110.25 -1.5 M104.25 4.5 Q 87.64 4.5, 71.03 76.38 T 37.81 148.25 M 25.81 148.25 m -1, 0 a 1,1 0 1,0 2,0 a 1,1 0 1,0 -2,0 M 25.81 148.25 m -0.5, 0 a 0.5,0.5 0 1,0 1,0 a 0.5,0.5 0 1,0 -1,0  M25.81 148.25 L25.81 148.25 37.81 148.25 M31.81 154.25 L31.81 154.25 31.81 142.25" id="h2622885007" class="r"></path><path d="M 116.25 29.5 m -1, 0 a 1,1 0 1,0 2,0 a 1,1 0 1,0 -2,0 M 116.25 29.5 m -0.5, 0 a 0.5,0.5 0 1,0 1,0 a 0.5,0.5 0 1,0 -1,0  M116.25 29.5 L116.25 29.5 104.25 29.5 M 116.25 35.5 m -1, 0 a 1,1 0 1,0 2,0 a 1,1 0 1,0 -2,0 M 116.25 35.5 m -0.5, 0 a 0.5,0.5 0 1,0 1,0 a 0.5,0.5 0 1,0 -1,0  M116.25 35.5 L116.25 35.5 109.25 29.5 116.25 23.5 M 116.25 23.5 m -1, 0 a 1,1 0 1,0 2,0 a 1,1 0 1,0 -2,0 M 116.25 23.5 m -0.5, 0 a 0.5,0.5 0 1,0 1,0 a 0.5,0.5 0 1,0 -1,0  M104.25 29.5 Q 80.45 29.5, 56.65 -31.75 T 9.04 -93 M -2.96 -93 m -1, 0 a 1,1 0 1,0 2,0 a 1,1 0 1,0 -2,0 M -2.96 -93 m -0.5, 0 a 0.5,0.5 0 1,0 1,0 a 0.5,0.5 0 1,0 -1,0  M-2.96 -93 L-2.96 -93 9.04 -93 M3.04 -87 L3.04 -87 3.04 -99" id="h2163296414" class="r"></path></g><g class="hrs"></g><g class="ts"><svg width="142.04" height="200" x="-145" y="-150" id="h2728321744" class="t"><rect height="40" width="142.04" class="th"></rect><text x="13" y="25" class="tht">user</text><rect height="160" width="142.04" class="t-bg"></rect><text x="13" y="61" class="tf pk">user_id<tspan x="129.04" class="ty">long</tspan></text><path d="M7,14A2,2 0 0,1 5,12A2,2 0 0,1 7,10A2,2 0 0,1 9,12A2,2 0 0,1 7,14M12.65,10C11.83,7.67 9.61,6 7, 6A6, 6 0 0, 0 1, 12A6, 6 0 0, 0 7, 18C9.61, 18 11.83, 16.33 12.65, 14H17V18H21V14H23V10H12.65Z" class="i pk" transform="translate(86.35249999999999, 48) scale(0.65)"></path><text x="13" y="86" class="tf">first_name<tspan x="129.04" class="ty">varchar</tspan></text><text x="13" y="111" class="tf">last_name<tspan x="129.04" class="ty">varchar</tspan></text><text x="13" y="136" class="tf">email<tspan x="129.04" class="ty">varchar</tspan></text><text x="13" y="161" class="tf">login<tspan x="129.04" class="ty">varchar</tspan></text><text x="13" y="186" class="tf">birthday<tspan x="129.04" class="ty">date</tspan></text></svg><svg width="172.06" height="225" x="-146.25" y="91.25" id="h4200617828" class="t"><rect height="40" width="172.06" class="th"></rect><text x="13" y="25" class="tht">film</text><rect height="185" width="172.06" class="t-bg"></rect><text x="13" y="61" class="tf pk">film_id<tspan x="159.06" class="ty">long</tspan></text><path d="M7,14A2,2 0 0,1 5,12A2,2 0 0,1 7,10A2,2 0 0,1 9,12A2,2 0 0,1 7,14M12.65,10C11.83,7.67 9.61,6 7, 6A6, 6 0 0, 0 1, 12A6, 6 0 0, 0 7, 18C9.61, 18 11.83, 16.33 12.65, 14H17V18H21V14H23V10H12.65Z" class="i pk" transform="translate(116.3725, 48) scale(0.65)"></path><text x="13" y="86" class="tf">name<tspan x="159.06" class="ty">varchar</tspan></text><text x="13" y="111" class="tf">description<tspan x="159.06" class="ty">varchar(200)</tspan></text><text x="13" y="136" class="tf">releaseDate<tspan x="159.06" class="ty">date</tspan></text><text x="13" y="161" class="tf">duration<tspan x="159.06" class="ty">int</tspan></text><text x="13" y="186" class="tf fk">rating_id</text><text x="13" y="211" class="tf fk">genre_id</text></svg><svg width="128.04" height="100" x="84.21000000000001" y="-200.57" id="h130788955" class="t"><rect height="40" width="128.04" class="th"></rect><text x="13" y="25" class="tht">friends_user</text><rect height="60" width="128.04" class="t-bg"></rect><text x="13" y="61" class="tf pk">user_id<tspan x="115.03999999999999" class="ty">long</tspan></text><path d="M7,14A2,2 0 0,1 5,12A2,2 0 0,1 7,10A2,2 0 0,1 9,12A2,2 0 0,1 7,14M12.65,10C11.83,7.67 9.61,6 7, 6A6, 6 0 0, 0 1, 12A6, 6 0 0, 0 7, 18C9.61, 18 11.83, 16.33 12.65, 14H17V18H21V14H23V10H12.65Z" class="i pk" transform="translate(72.35249999999999, 48) scale(0.65)"></path><text x="13" y="86" class="tf fk">friend_id<tspan x="115.03999999999999" class="ty">long</tspan></text></svg><svg width="134.72" height="100" x="303.75" y="-201.25" id="h511352680" class="t"><rect height="40" width="134.72" class="th"></rect><text x="13" y="25" class="tht">friends_status</text><rect height="60" width="134.72" class="t-bg"></rect><text x="13" y="61" class="tf pk">friend_id<tspan x="121.72" class="ty">long</tspan></text><path d="M7,14A2,2 0 0,1 5,12A2,2 0 0,1 7,10A2,2 0 0,1 9,12A2,2 0 0,1 7,14M12.65,10C11.83,7.67 9.61,6 7, 6A6, 6 0 0, 0 1, 12A6, 6 0 0, 0 7, 18C9.61, 18 11.83, 16.33 12.65, 14H17V18H21V14H23V10H12.65Z" class="i pk" transform="translate(79.0325, 48) scale(0.65)"></path><text x="13" y="86" class="tf fk">status_id<tspan x="121.72" class="ty">int</tspan></text></svg><svg width="126.7" height="100" x="534.2" y="-200.8" id="h2385436622" class="t"><rect height="40" width="126.7" class="th"></rect><text x="13" y="25" class="tht">status</text><rect height="60" width="126.7" class="t-bg"></rect><text x="13" y="61" class="tf pk">status_id<tspan x="113.7" class="ty">int</tspan></text><path d="M7,14A2,2 0 0,1 5,12A2,2 0 0,1 7,10A2,2 0 0,1 9,12A2,2 0 0,1 7,14M12.65,10C11.83,7.67 9.61,6 7, 6A6, 6 0 0, 0 1, 12A6, 6 0 0, 0 7, 18C9.61, 18 11.83, 16.33 12.65, 14H17V18H21V14H23V10H12.65Z" class="i pk" transform="translate(81.026171875, 48) scale(0.65)"></path><text x="13" y="86" class="tf">name</text></svg><svg width="123.36" height="100" x="116.25" y="-52.5" id="h82491880" class="t"><rect height="40" width="123.36" class="th"></rect><text x="13" y="25" class="tht">film_liked</text><rect height="60" width="123.36" class="t-bg"></rect><text x="13" y="61" class="tf pk">film_id<tspan x="110.36" class="ty">long</tspan></text><path d="M7,14A2,2 0 0,1 5,12A2,2 0 0,1 7,10A2,2 0 0,1 9,12A2,2 0 0,1 7,14M12.65,10C11.83,7.67 9.61,6 7, 6A6, 6 0 0, 0 1, 12A6, 6 0 0, 0 7, 18C9.61, 18 11.83, 16.33 12.65, 14H17V18H21V14H23V10H12.65Z" class="i pk" transform="translate(67.6725, 48) scale(0.65)"></path><text x="13" y="86" class="tf fk">user_id<tspan x="110.36" class="ty">long</tspan></text></svg><svg width="107.03" height="100" x="117.5" y="68.75" id="h2037942479" class="t"><rect height="40" width="107.03" class="th"></rect><text x="13" y="25" class="tht">rating</text><rect height="60" width="107.03" class="t-bg"></rect><text x="13" y="61" class="tf pk">rating_id</text><path d="M7,14A2,2 0 0,1 5,12A2,2 0 0,1 7,10A2,2 0 0,1 9,12A2,2 0 0,1 7,14M12.65,10C11.83,7.67 9.61,6 7, 6A6, 6 0 0, 0 1, 12A6, 6 0 0, 0 7, 18C9.61, 18 11.83, 16.33 12.65, 14H17V18H21V14H23V10H12.65Z" class="i pk" transform="translate(79.03, 48) scale(0.65)"></path><text x="13" y="86" class="tf">name</text></svg><svg width="107.71" height="100" x="118.75" y="185" id="h1304626560" class="t"><rect height="40" width="107.71" class="th"></rect><text x="13" y="25" class="tht">genre</text><rect height="60" width="107.71" class="t-bg"></rect><text x="13" y="61" class="tf pk">genre_id</text><path d="M7,14A2,2 0 0,1 5,12A2,2 0 0,1 7,10A2,2 0 0,1 9,12A2,2 0 0,1 7,14M12.65,10C11.83,7.67 9.61,6 7, 6A6, 6 0 0, 0 1, 12A6, 6 0 0, 0 7, 18C9.61, 18 11.83, 16.33 12.65, 14H17V18H21V14H23V10H12.65Z" class="i pk" transform="translate(79.71, 48) scale(0.65)"></path><text x="13" y="86" class="tf">name</text></svg></g></g><text class="qdbd-link" x="10" y="20">www.quickdatabasediagrams.com</text></svg>